HIERARCHY
ROOT hip
{
	OFFSET 0.000000 0.000000 0.000000 
	CHANNELS 6 Xposition Yposition Zposition Xrotation Zrotation Yrotation
	JOINT abdomen
	{
		OFFSET 0.000000 0.000000 0.000000 
		CHANNELS 3 Xrotation Zrotation Yrotation
		JOINT chest
		{
			OFFSET 0.000000 4.862840 -1.823974 
			CHANNELS 3 Xrotation Zrotation Yrotation
			JOINT neck
			{
				OFFSET 0.000000 2.209834 -0.380644 
				CHANNELS 3 Xrotation Zrotation Yrotation
				JOINT head
				{
					OFFSET 0.000000 3.388650 0.513082 
					CHANNELS 3 Xrotation Zrotation Yrotation
					End Site
					{
						OFFSET 0.000000 10.033302 0.000000 
					}
				}
			}
			JOINT lCollar
			{
				OFFSET 0.580691 8.059053 0.760605 
				CHANNELS 3 Yrotation Zrotation Xrotation
				JOINT lShldr
				{
					OFFSET 6.222462 0.009832 -0.321848 
					CHANNELS 3 Zrotation Yrotation Xrotation
					JOINT lForeArm
					{
						OFFSET 10.220657 0.024782 0.183730 
						CHANNELS 3 Yrotation Zrotation Xrotation
						JOINT lHand
						{
							OFFSET 10.719483 0.309727 0.636712 
							CHANNELS 3 Zrotation Yrotation Xrotation
							End Site
							{
								OFFSET 10.033305 0.000000 0.000000 
							}
						}
					}
				}
			}
			JOINT rCollar
			{
				OFFSET -0.580691 8.059053 0.760605 
				CHANNELS 3 Yrotation Zrotation Xrotation
				JOINT rShldr
				{
					OFFSET -6.222462 0.009832 -0.321848 
					CHANNELS 3 Zrotation Yrotation Xrotation
					JOINT rForeArm
					{
						OFFSET -10.220657 0.024782 0.183730 
						CHANNELS 3 Yrotation Zrotation Xrotation
						JOINT rHand
						{
							OFFSET -10.719483 0.309727 0.636712 
							CHANNELS 3 Zrotation Yrotation Xrotation
							End Site
							{
								OFFSET -10.033305 0.000000 0.000000 
							}
						}
					}
				}
			}
		}
	}
	JOINT lThigh
	{
		OFFSET 4.361177 -6.202389 -1.775974 
		CHANNELS 3 Xrotation Zrotation Yrotation
		JOINT lShin
		{
			OFFSET -1.317052 -18.333157 1.143369 
			CHANNELS 3 Xrotation Zrotation Yrotation
			JOINT lFoot
			{
				OFFSET -0.636132 -16.703447 -0.302338 
				CHANNELS 3 Xrotation Yrotation Zrotation
				End Site
				{
					OFFSET 0.000000 -2.207327 5.819317 
				}
			}
		}
	}
	JOINT rThigh
	{
		OFFSET -4.361177 -6.202389 -1.775974 
		CHANNELS 3 Xrotation Zrotation Yrotation
		JOINT rShin
		{
			OFFSET 1.317052 -18.333157 1.143369 
			CHANNELS 3 Xrotation Zrotation Yrotation
			JOINT rFoot
			{
				OFFSET 0.636132 -16.703447 -0.302338 
				CHANNELS 3 Xrotation Yrotation Zrotation
				End Site
				{
					OFFSET 0.000000 -2.207327 5.819317 
				}
			}
		}
	}
}
MOTION
Frames: 13
Frame Time: 0.016667
-21.124014 42.161530 -112.297989 -9.287604 2.276016 12.803261 22.551720 -1.649451 1.934198 -22.623709 2.682847 2.571485 15.324308 5.090007 4.746003 20.897514 -4.085587 3.162275 -1.054726 -0.224430 -0.009764 -76.822235 17.676283 5.468920 -13.691282 1.788677 19.436090 -16.602306 16.828718 -4.943000 11.221025 1.921928 -0.009901 74.184158 -4.085092 -17.490862 32.641464 -1.866483 20.276020 18.274725 -6.695463 -2.215878 -14.274812 -0.663575 -10.562938 23.442339 -1.425529 -2.153434 -9.274959 4.965214 -11.294714 15.239326 -2.314179 -5.907313 43.188457 0.477470 3.203051 -9.917418 -1.708842 11.875422 
-21.436993 42.089314 -113.254364 -9.181473 1.769921 12.994643 22.655050 -1.297865 2.207571 -22.701523 2.780144 2.689015 15.089478 4.983856 4.617813 20.945436 -3.881216 3.053762 -1.259806 -0.234160 -0.009763 -77.433029 18.165277 0.452491 -12.475611 1.982709 22.209562 -16.493267 16.639641 -4.853348 11.289369 1.834026 -0.009884 73.724762 -2.950363 -17.127413 33.604191 -1.770154 19.229057 18.078215 -6.702973 -2.193094 -15.394925 -0.116184 -11.107277 22.903666 -1.435298 -2.136944 -9.599571 5.138670 -11.231791 16.272320 -1.474481 -6.105124 39.529465 0.666521 3.025749 -13.038479 -1.758201 11.776934 
-21.749968 42.017166 -114.210785 -9.076497 1.274099 13.187006 22.751968 -0.946378 2.480776 -22.778927 2.867633 2.816304 14.854287 4.877707 4.479910 21.002348 -3.676790 2.945297 -1.474651 -0.243889 -0.009762 -78.072266 18.604795 -4.568707 -11.262108 2.234833 24.980242 -16.375296 16.460501 -4.767033 11.367478 1.746122 -0.009867 73.267357 -1.814227 -16.771397 34.561989 -1.685495 18.188396 17.881701 -6.710405 -2.170286 -16.530590 0.419894 -11.650447 22.384752 -1.446159 -2.111923 -9.933792 5.291177 -11.155383 17.299999 -0.635138 -6.277790 35.878586 0.876070 2.835642 -16.127390 -1.813350 11.681050 
-22.058109 41.993988 -115.203636 -8.925652 0.703299 13.292153 22.893093 -0.565771 2.714904 -22.836479 3.013761 2.885087 14.477267 4.761382 4.400407 21.060028 -3.540345 2.915452 -1.601604 -0.243868 -0.009762 -78.703148 18.815701 -9.464957 -10.470320 2.345992 26.565538 -16.426851 16.465803 -4.786283 11.465118 1.638684 -0.009846 72.822067 -0.838431 -16.392263 35.280231 -1.598216 17.192335 17.670830 -6.597163 -2.106882 -17.516197 0.996294 -12.150333 21.855614 -1.474235 -2.069793 -10.327281 5.405340 -11.128977 17.417173 0.194609 -6.373914 32.977791 1.003324 2.688743 -18.759390 -2.004812 11.579981 
-22.366209 41.970901 -116.196472 -8.767169 0.133003 13.388725 23.027531 -0.185300 2.958969 -22.893681 3.159868 2.953882 14.090070 4.635283 4.320939 21.118149 -3.403920 2.875882 -1.738323 -0.243844 -0.009761 -79.358070 18.958740 -14.367435 -9.692437 2.481063 28.142138 -16.476460 16.483221 -4.796452 11.552990 1.531247 -0.009825 72.380058 0.129553 -16.014170 35.994617 -1.513767 16.202885 17.469950 -6.483207 -2.045446 -18.514854 1.562186 -12.658262 21.347317 -1.485121 -2.015658 -10.743316 5.509300 -11.040605 17.516327 1.034221 -6.477438 30.095783 1.130468 2.518412 -21.378498 -2.160500 11.443810 
-22.644596 42.007324 -117.195168 -8.596441 -0.379977 13.408486 23.228985 0.117016 3.095717 -22.972944 3.315881 2.964193 13.673921 4.576974 4.301466 21.186335 -3.384355 2.895380 -1.748083 -0.214546 -0.009761 -79.996750 19.031466 -18.243113 -9.357341 2.514373 28.496033 -16.588009 16.669619 -4.891985 11.631096 1.414047 -0.009803 72.118652 0.808217 -15.722001 36.478783 -1.487829 15.826674 17.609983 -6.273187 -1.997362 -19.419809 1.982607 -13.018531 21.425278 -1.484317 -2.029345 -10.699411 5.649530 -11.038326 16.918583 1.697967 -6.569094 28.140749 1.218492 2.401136 -23.141184 -2.387512 11.304290 
-22.922915 42.043827 -118.193817 -8.416160 -0.892909 13.419504 23.422667 0.429004 3.232551 -23.052231 3.481675 2.964786 13.248048 4.518661 4.281217 21.254457 -3.355009 2.924628 -1.757844 -0.185247 -0.009761 -80.640938 19.057394 -22.130352 -9.018661 2.541696 28.858694 -16.697186 16.858541 -4.979175 11.709203 1.306612 -0.009783 71.864464 1.473181 -15.429923 36.959488 -1.448501 15.452412 17.740330 -6.063782 -1.946133 -20.301880 2.383717 -13.393742 21.473495 -1.478606 -2.060110 -10.667559 5.771677 -10.978982 16.320087 2.361115 -6.647962 26.185509 1.286810 2.277268 -24.900608 -2.626655 11.135992 
-23.153315 42.139030 -119.168678 -8.264602 -1.244623 13.372293 23.657293 0.604500 3.242419 -23.156397 3.628184 2.896568 12.872450 4.557439 4.311198 21.325075 -3.432851 2.983692 -1.679712 -0.146198 -0.009761 -81.235672 18.908113 -25.329592 -8.860057 2.520993 28.583406 -16.899818 16.945126 -5.068488 11.758019 1.238244 -0.009770 71.863976 1.665459 -15.265936 37.368443 -1.460931 15.594918 17.923630 -5.964534 -1.935827 -21.136658 2.490628 -13.622558 22.883970 -1.431473 -2.144952 -10.044924 5.994637 -11.000432 15.378655 2.762697 -6.741448 24.884285 1.335887 2.201106 -25.640293 -2.781444 11.022226 
-23.383627 42.234299 -120.143471 -8.122230 -1.596476 13.325386 23.891554 0.770235 3.262080 -23.260427 3.784460 2.828997 12.496890 4.596214 4.340404 21.405815 -3.500929 3.042767 -1.601581 -0.107149 -0.009762 -81.818550 18.721272 -28.532385 -8.693293 2.503429 28.308487 -17.092499 17.032190 -5.155574 11.797069 1.160113 -0.009755 71.862862 1.851408 -15.089624 37.789272 -1.477793 15.732743 18.116730 -5.865089 -1.925894 -21.980442 2.607530 -13.853230 24.274178 -1.396267 -2.210543 -9.442159 6.224342 -11.053236 14.440744 3.153293 -6.852612 23.553530 1.384723 2.112513 -26.347488 -2.941356 10.925628 
-23.559677 42.373337 -121.073677 -8.042864 -1.768164 13.238663 24.146166 0.809319 3.154672 -23.331650 3.901922 2.701686 12.195112 4.673750 4.399599 21.492832 -3.607935 3.121345 -1.503921 -0.087634 -0.009762 -82.225914 18.310966 -30.761414 -8.511705 2.464077 27.905926 -17.094707 17.163750 -5.193969 11.806830 1.140580 -0.009752 72.068283 1.485250 -14.864554 38.052540 -1.464051 15.638347 17.947460 -5.796319 -1.883974 -22.553413 2.832150 -11.699922 27.100981 -1.288950 -2.402679 -8.932116 4.634237 -11.397865 13.474841 3.280628 -6.972407 22.486338 1.423747 2.044954 -26.179913 -2.910061 10.932692 
-23.735657 42.512398 -122.003830 -7.962648 -1.940048 13.142310 24.410915 0.858160 3.047264 -23.412718 4.029145 2.575044 11.903211 4.761068 4.449066 21.580099 -3.705167 3.199930 -1.396498 -0.077887 -0.009763 -82.615234 17.879864 -32.983501 -8.326980 2.435455 27.504036 -17.094105 17.298185 -5.223424 11.806828 1.121049 -0.009748 72.263588 1.124353 -14.645444 38.315662 -1.456981 15.536230 17.787766 -5.717745 -1.841466 -23.123810 3.085839 -9.554528 29.927805 -1.157383 -2.545736 -8.420377 2.982713 -11.711328 12.528649 3.417301 -7.090463 21.408865 1.462664 1.976287 -26.000229 -2.887018 10.968547 
-23.862074 42.667744 -122.880653 -7.968836 -1.978715 13.064565 24.620680 0.809529 2.871497 -23.418766 4.146707 2.418502 11.670938 4.838505 4.518825 21.697603 -3.792665 3.268779 -1.308607 -0.077902 -0.009763 -82.781540 17.341845 -32.920479 -8.240256 2.378266 26.724909 -16.951347 17.383354 -5.210497 11.787300 1.140583 -0.009752 72.551117 0.235739 -14.470506 38.273819 -1.423751 15.098330 17.657871 -5.647367 -1.805224 -23.334822 3.212447 -7.967137 33.698490 -0.972869 -2.784389 -7.538209 2.073805 -11.865395 11.681030 3.365947 -7.222003 20.438280 1.498660 1.921689 -25.228123 -2.659423 11.096859 
-23.988436 42.823055 -123.757385 -7.974576 -2.017482 12.976729 24.830744 0.760876 2.695593 -23.425802 4.274052 2.252945 11.438015 4.915988 4.578046 21.824001 -3.880108 3.347378 -1.210953 -0.087684 -0.009763 -82.938713 16.799885 -32.853195 -8.156636 2.319204 25.946163 -16.806471 17.480742 -5.190943 11.767773 1.169883 -0.009758 72.833359 -0.642378 -14.298470 38.244514 -1.381514 14.666409 17.537842 -5.576551 -1.769298 -23.526670 3.348874 -6.392805 37.478264 -0.777448 -2.961786 -6.659625 1.147547 -12.032968 10.842352 3.307458 -7.343652 19.458319 1.531044 1.846301 -24.413673 -2.433789 11.229973 
